# xmcd CD database file
#
# Track frame offsets:
#	150
#	25796
#	38555
#	62769
#	78510
#	99429
#	123790
#	145906
#	165982
#	186385
#	208213
#	227986
#	252662
#	270536
#	297217
#
# Disc length: 4334 seconds
#
# Revision: 0
# Processed by: cddbd v1.5.1PL0 Copyright (c) Steve Scherf et al.
# Submitted via: CDex 1.51
#
DISCID=d410ec0f
DTITLE=DJ WIKED - LIL FLIP - U GOTTA FEEL ME
DYEAR=2060
DGENRE=Salsa
TTITLE0=01-DJ WIKED - I CAME TO BRING THE PAIN (LIL FLIP FT LUDACRIS) 1600
TTITLE1=02-DJ WIKED - THE GHETTO (LIL FLIP) 1600
TTITLE2=03-DJ WIKED - BOUNCE (LIL FLIP) 1600
TTITLE3=04-DJ WIKED - ALL I KNOW (LIL FLIP) 1600
TTITLE4=05-DJ WIKED - GAME OVER (LIL FLIP) 1600
TTITLE5=06-DJ WIKED - REPRESENT (LIL FLIP FT 3 6 MAFIA AND DAVID BANNER) 1600
TTITLE6=07-DJ WIKED - RAGZ 2 RICHES (LIL FLIP FT WILL LEAN) 1600
TTITLE7=08-DJ WIKED - AINT NO PARTY (LIL FLIP) 1600
TTITLE8=09-DJ WIKED - CHECK (LIL FLIP) 1600
TTITLE9=10-DJ WIKED - DEM BOYZ (LIL FLIP) 1600
TTITLE10=11-DJ WIKED - SUNSHINE (LIL FLIP) 1600
TTITLE11=13-DJ WIKED - WE AINT PLAYIN (LIL FLIP) 1600
TTITLE12=14-DJ WIKED - THROW UP YO HOOD (LIL FLIP) 1600
TTITLE13=15-DJ WIKED - WHERE IM FROM (LIL FLIP) 1600
TTITLE14=16-DJ WIKED - WHATS MY NAME (LIL FLIP) 1600
EXTD=YEAR: 2060
EXTT0=
EXTT1=
EXTT2=
EXTT3=
EXTT4=
EXTT5=
EXTT6=
EXTT7=
EXTT8=
EXTT9=
EXTT10=
EXTT11=
EXTT12=
EXTT13=
EXTT14=
PLAYORDER=
